<svg clip-rule="evenodd" fill-rule="evenodd" stroke-linecap="round" stroke-linejoin="round" stroke-miterlimit="1.5" viewBox="0 0 365 365" xmlns="http://www.w3.org/2000/svg" xmlns:xlink="http://www.w3.org/1999/xlink"><clipPath id="a"><path clip-rule="evenodd" d="m327.51 285.723c-57.048 80.111-168.403 98.835-248.514 41.787-80.111-57.048-98.835-168.403-41.787-248.514 57.048-80.111 168.403-98.835 248.514-41.787s98.835 168.403 41.787 248.514z"/></clipPath><path d="m327.51 285.723c-57.048 80.111-168.403 98.835-248.514 41.787-80.111-57.048-98.835-168.403-41.787-248.514 57.048-80.111 168.403-98.835 248.514-41.787s98.835 168.403 41.787 248.514z" fill="#f1a948"/><g clip-path="url(#a)" fill-rule="nonzero"><path d="m28.212 154.179c.415-1.104-.831-2.991 1.477-3.267.738.782 1.431 1.242 1.523-.414 1.108-1.519 1.569-.69 2.215.46.6 1.104 1.477 2.025 2.261 3.037.554-1.15 1.154-2.255 1.661-3.451.369-.828.323-1.841.831-2.485 2.077-2.669 2.861-5.568 1.892-9.388.969.506 1.569.644 1.846 1.012 1.385 1.703 2.123 1.611 4.2.184 4.477-2.991 7.292-6.811 9.277-11.597.323-.782 1.338-1.289 1.8-2.025.277-.46.277-1.519 0-1.749-2.354-1.979-.508-3.773.508-5.108 1.2-1.565 3.138-1.703 4.754-.092.369.276.692.552 1.062.874.138.276.231.552.369.782.277.368.554.69.877 1.012.046-.46.231-.966.092-1.381-.138-.368-.554-.644-.877-.92.046-.23-.046-.368-.277-.368.231-.368.508-.736.738-1.058.323-.276.646-.552.969-.828.554-.874 1.015-1.841 1.661-2.623.323-.368 1.015-.828 1.338-.736.969.276 2.077 1.289 2.585-.276.508-1.611.6-3.359.785-5.016 0-.092-1.108-.506-1.338-.322-5.308 3.912-5.584 4.234-9.231.92-1.892-1.703-5.4-2.577-4.984-6.351.046-.414-.969-1.104-1.615-1.473-1.477-.874-3.046-1.657-4.8-2.623 1.8-2.255 2.954-4.326 5.769-4.694.877-.138 1.477-1.933 2.261-2.991 4.292 1.749 4.431 1.749 4.892-2.853.138-1.565.554-2.117 2.123-2.209 2.077-.138 4.154-.46 6.231-.828.692-.092 1.569-.276 1.892-.782 1.292-1.887 2.723-2.669 4.984-1.519 1.2.644 1.985-.092 2.261-1.381.277-1.104.369-2.393.969-3.313.877-1.381 2.031-2.715 2.908.184.415 1.427 1.477 1.979 2.677.552.554-.69.923-1.473 1.385-2.209v-2.577c1.708.506 3.415 1.012 5.123 1.519 2.492.736 3.415.184 4.569-2.485.646-1.565 1.338-3.037 3.508-2.071.092.644.185 1.289.277 1.933.831-.138 1.661-.23 2.446-.506.138-.046 0-1.058-.185-1.565-.277-.874-.692-1.749-1.062-2.577.692-.966 1.431-1.841 2.031-2.853.277-.46.6-1.104.508-1.611-.231-1.15-2.446-2.439-.508-3.313 2.215-.966 4.846-1.058 7.292-1.335.369-.046.877.966 1.338 1.519-.877.644-1.938 1.104-2.492 1.933-.462.69-.231 1.795-.277 2.715.785-.138 1.938 0 2.308-.506.877-1.196 1.385-2.623 1.985-4.004.923-1.795-.646-3.405-.092-5.476.646-2.393 1.431-3.451 3.6-3.589s3.6-.552 2.815-3.221c-.092-.368.6-1.289 1.062-1.381 3.508-.874 3.785-.828 3.923-4.556.092-2.163 1.154-2.071 2.585-1.979.231.506.462 1.012.692 1.565 0-.552 0-1.058.046-1.611.785-1.196 1.615-2.393 2.861-4.326.785 3.175 1.938 5.246 4.661 5.706 1.8.46.969-.644.831-1.381-.185-2.117-.185-4.188 2.169-5.706 1.569 1.473.138 5.016 3.785 5.108-1.154-3.497 2.723-4.464 3.692-7.133.231-.69 2.123-1.289 2.954.322.092.276.138.598.231.874.462-.23.877-.46 1.338-.69 1.477-.046 1.523-1.104 1.754-2.209.185-.874-.554-2.485 1.292-2.209.554.092.969 1.196 1.431 1.841.323.506.6 1.012.923 1.565.231.874.462 1.703.692 2.577.369-.736.831-1.427 1.108-2.209.138-.368-.046-.874-.046-1.289.877-.644 1.431-2.945 2.908-.46.646 1.104 1.523.736 2.123-.184 1.338-1.979 2.861-2.347 5.031-1.196 1.338.736 2.077.138 2.308-1.657.277-2.071 1.661-2.761 3.461-1.104-.231 1.289-.6 2.623-.692 3.912-.046.69.369 1.427.6 2.117.554-.69 1.385-1.335 1.661-2.117.415-1.196.415-2.485.646-3.727 2.492-1.473 3.138-1.335 4.108.828-.138.046-.277.092-.415.138.185.092.415.23.6.322 1.846.46 3.692.92 5.538 1.335.231-.368.462-.69.646-1.058v-4.648c1.708 1.749 3.277 2.623 3.646 3.82 1.246 3.912 4.661 4.372 7.754 5.43 1.292.414 2.677.552 3.923 1.104.646.322 1.523 1.381 1.431 1.933-.6 2.991 1.385 4.464 3.231 6.028.785-1.012 1.431-2.255 2.446-2.899 1.062-.644 2.723-1.749 3.092 1.058.092.69 2.031 1.15 3.092 1.703-1.477 2.439-2.954 4.878-4.385 7.225 3.461 2.209 4.615-2.669 7.8-1.841-.138 1.012-.277 2.117-.415 3.175-.415 1.519-.046 2.163 1.477 1.196.508-.322.923-.736 1.385-1.104.462.368.969 1.012 1.431 1.012 3.508-.046 5.4 2.531 7.108 4.832 1.846 2.485 4.431 3.037 6.738 2.715 3.646-.506 6 1.289 8.677 2.899 1.615.966 3.461 1.703 5.261 2.163 2.677.644 5.584 3.727 5.723 6.489-.231.414-.415.874-.646 1.289-1.846 2.393-4.338-.552-6.508.966 1.985 2.163 4.523 1.841 6.969 1.795.277 0 .508-1.012.785-1.565.646-.644 1.292-1.289 1.938-1.933.831 0 1.661.046 2.492.092.046 0 0 .69 0 1.058.092.23.138.506.231.736.138-.138.231-.276.369-.368-.231-.092-.462-.184-.692-.276 1.8.092 3.6.046 3.323 2.853-.092 1.058.692 2.255 1.015 3.267 1.938.506 3.231-2.761 5.261-.552.138.184 1.2-.506 1.846-.782.831-.368 1.661-.782 3.046-1.381-.692 2.439-1.154 4.096-1.615 5.706 1.154 1.565 5.492-1.887 4.338 2.945-.138.276-.323.506-.462.782.508-.276.969-.506 1.477-.782 1.431-1.519 2.908-2.623 4.938-.92-.185.368-.369.782-.554 1.15-.185.46-.323.92-.508 1.427.554.046 1.108.046 1.661.092.969.598 2.446.828 1.477 2.623-.415.736-.692 1.657-.6 2.485.185 2.347.831 2.025 3.185 1.335 2.908-.828 5.861-4.602 9.231-.782-.323.782-2.215 1.933.508 1.979-.046 1.196-.092 2.393-.138 3.589-.231.046-.369.184-.277.414 0 .368.046.736.046 1.104.185-.184.323-.368.508-.598.369-.276.738-.552 1.108-.874.877-.092 1.8-.138 2.677-.23-.231.874-.554 1.749-.692 2.623-.185 1.104-2.031 2.899.323 3.221 1.985.276.785-2.071 1.338-3.129 1.431-2.577 2.4-5.752 6.692-4.418-.138 1.15-.277 2.393-.415 3.635-.277.46-.554.92-.831 1.381.231.092.646.322.692.23.369-.506.692-1.104 1.015-1.657.692-.552 1.385-1.104 2.585-2.025 0 2.301-.138 4.004.046 5.706.092.644 1.062 1.749 1.385 1.657 2.585-.782 4.338.966 6.461 1.519 3.231.874 4.477 3.681 7.061 4.878.415.184.462 1.289.646 1.933-1.477-.092-2.308.46-2.169 2.071.877-.184 1.754-.322 2.585-.552.277-.092.508-.368.738-.506 1.062 0 2.169.138 3.185 0 2.723-.46 4.061 1.289 4.338 3.359.231 1.933 1.108 2.025 2.538 2.393 2.677.736 5.261 1.887 7.846 2.899.231.092.369.322.508.552 1.246 1.749 2.538 3.543 3.877 5.476-.923 1.242-3.6 1.427-3.415 4.326.046.874-1.985 2.209-3.323 2.761-3.323 1.427-6.738 2.531-10.107 3.727-1.569.782-.877 1.335.138 1.933.415.414.969.782 1.246 1.289.323.644.369 1.381.554 2.071-.831.046-1.661.322-2.446.138-1.846-.46-3.646-1.104-5.492-1.657 0-.138 0-.322-.046-.414-.554-.966-1.154-1.933-1.8-2.853 0-.046-1.015.552-.969.598.508.966 1.062 1.933 1.615 2.899-.277 3.727-.277 3.727-3.554 2.807-.554-.138-1.2-.138-1.754-.184-2.308-1.196.138-2.623-.231-3.912-.138-.506-.554-1.196-.969-1.289-.369-.092-1.246.414-1.338.828-.323 1.473-.415 2.991-.6 4.464-.554.506-1.338.874-1.615 1.519-.923 2.117-1.985 2.209-3.692.782-.646-.506-1.892-.184-2.861-.368-1.615-.276-3.185-.598-4.754-.92-.277-.23-.508-.414-.785-.644-3.092-.598-6.184-1.933-9.277.046-.185.092-1.015-.368-1.2-.782-.923-2.301-2.492-2.715-4.708-2.117-.646.184-1.477-.184-2.215-.276-2.261-.322-4.154-.138-4.8 2.623-.323 1.427-1.154 1.012-1.892.23-.138-.322-.323-.644-.462-.966-.323.322-.646.69-1.015 1.012-2.354 1.887-4.338.506-6.323-1.058-.877 1.841.277 4.188-2.169 4.832-.508.138-1.385.368-1.431.276-1.385-3.82-5.123-2.761-7.8-3.773-.462-.046-.923-.092-1.385-.092.369.644.785 1.289 1.154 1.933.046.552.138 1.058.185 1.611-2.631 1.104-3.461-1.611-5.123-2.347-.692 1.473-1.431 2.945-2.031 4.464-.185.46-.046 1.058 0 1.611.554 0 1.338.23 1.661-.046 1.385-1.381 2.908-1.058 4.569-.782.554.092 1.246-.69 1.846-1.058.554-.092 1.385-.46 1.661-.23 2.631 2.117 5.215 4.372 7.8 6.581 1.892 1.657 4.108.046 6.184.782.969.368 2.723-.736 3.277-.23 1.015.92 1.431 2.531 1.985 3.866.277.644.231 1.427.369 2.209 1.385-.736 2.538-1.427 3.785-1.933.462-.184 1.108.046 1.661.092-.462 4.142 4.523 2.439 5.631 5.2.6 1.473 2.215 2.255-.369 3.221-.323.138-.369 1.012-.508 1.565.462.276.877.552 1.338.782 3-.276 5.308.46 6 3.82-.185.46-.369.966-.554 1.427.508 0 1.015-.046 1.523-.046.369.552 1.015 1.15 1.062 1.703.046 1.381.277 2.393 1.8 2.761.415.092 1.154.598 1.108.69-1.385 4.832 3.415 4.326 5.446 5.844 1.523 1.104 2.585 1.473 1.523 3.451-.185.368.231 1.058.323 1.565-.138 1.335-.646 2.807.923 3.727-.231.69-.738 1.473-.554 2.025.323 1.242 1.015 2.393 1.569 3.589-.415.092-.831.184-1.246.276.554.598 1.108 1.196 1.615 1.795.369 1.289-1.431 3.681 1.846 3.497.277 0 .646.138.785.322.692 1.058-1.246 7.363-2.492 7.593-2.308.46-4.892-.092-6.231 2.715-.046.138-2.261-.736-3.831-1.242-.692.828-1.661 2.117-2.815 3.543-2.538-2.393-4.892-4.602-7.384-6.949-.138.598-.231 1.657-.738 2.485-.415.69-1.292 1.104-1.938 1.657-.6-.828-1.2-1.703-1.754-2.531-.323.782-.692 1.611-1.015 2.393-.646.782-1.338 1.565-2.4 2.807-.6-2.255-1.892-3.866-.831-5.936.508-1.335.508-1.335-.554-1.289-1.015.184-2.308 0-2.954.552-1.985 1.841-4.015 1.427-6.231.69 1.938-3.129 1.938-3.129-.646-4.418-.646-.69-1.292-1.381-1.938-2.117-1.8-.552-3.508-1.104-4.754-2.761-2.354-3.129-3.415-3.267-6.554-1.289-.646.414-1.292.828-1.985 1.012-1.523.414-2.815.23-2.677-1.841.046-.782.046-1.519 0-2.301-.185-2.669-3.092-4.188-5.354-2.577-1.985 1.427-3.785 2.439-6.138.736.185-.276.323-.506.415-.69.554-1.565 3.415-1.841 2.538-4.28-1.431.598-2.908 1.289-4.338 1.841-.646.276-1.385.368-2.261.552v-3.866c-1.338.46-3.046.598-4.015 1.519-9.277 8.697-20.307 14.864-30.969 21.537-.508.322-1.015.69-1.569.736-6.184.69-10.338 5.384-15.692 7.777-4.385 1.933-8.584 4.28-12.969 6.258-4.754 2.117-6.831 5.844-7.2 10.814-.6 8.375 2.261 15.508 7.846 21.629 10.015 10.952 20.03 21.859 29.999 32.857 2.031 2.255 3.738 4.786 5.631 7.179 1.754 2.301 3.831 3.405 6.969 3.359 19.661-.184 39.368-.138 59.029-.138 4.385 0 4.292-.644 4.292 4.142 0 4.418.185 4.096-3.923 4.05-.6 0-1.246.092-1.846.138-.323.276-.692.552-1.015.828-2.123 9.02-4.338 17.993-6.415 27.013-2.538 10.952-4.892 21.905-7.477 32.857-.231.92-1.338 2.071-2.261 2.347-1.754.506-3.646.552-5.446.552-52.43.046-104.859 0-157.335 0h-.462c-4.154-.046-4.154-.046-5.077-3.912-1.477-6.304-3.369-12.563-4.385-18.913-1.523-9.342-4.292-18.361-6.461-27.565-.831-3.589-1.338-7.271-1.892-10.906-.231-1.611-.877-2.531-2.677-2.347-.738.092-1.523-.046-2.308 0-1.477.092-2.169-.414-2.354-2.025-.6-5.752-.323-6.166 5.584-6.166h57.645c5.4 0 5.954-.368 7.984-5.384 1.154-2.807 2.354-5.614 3.646-8.421 1.338-2.899.692-5.292-1.108-7.869-5.354-7.823-10.661-15.692-15.553-23.791-2.769-4.602-4.2-10.216-2.954-15.324 2.215-8.974 6.231-16.935 15.6-21.352 7.523-3.543 15.092-6.995 22.799-10.124 6.969-2.853 12.507-7.409 15.092-14.726.923-2.623 1.569-5.476 1.8-8.237.462-5.844-3.092-9.94-8.861-10.952-3.692-.644-7.384-1.289-11.031-2.209-2.354-.598-4.892-1.242-6.831-2.623-2.677-1.841-5.446-1.795-8.261-1.565-8.215.782-16.477 1.335-24.23 4.326-3.092 1.196-6.046 2.807-9.092 4.142-7.708 3.313-15.461 6.489-23.169 9.802-2.769 1.196-5.492 2.531-8.123 4.004-5.677 3.083-10.984 7.179-16.984 9.204-8.4 2.853-17.123 5.292-26.399 3.82-5.769-.92-10.892-2.347-14.446-7.317-.923-1.335-1.8-1.196-2.908 0-2.169 2.301-5.169 2.347-8.077 2.439-.6 0-1.2-.69-1.754-1.058 2.4-1.15 3.6-2.623 1.477-5.706-.831 1.979-1.477 3.543-2.169 5.154-2.585.506-4.477-.184-5.031-3.083 0-.23 0-.414.046-.644-.231.138-.508.276-.738.414-.738 1.565-1.431 3.175-2.354 5.108-4.108-5.936-4.338-4.51-9.138-1.519-2.446-5.246-1.615-4.188-6.415-1.427-.369-1.703-.415-3.912-3.092-3.037v-2.899c-1.754-.782-4.2-1.104-5.077-2.439-.969-1.519-.554-4.004-.738-6.304 2.538.322 4.108-2.301 6.554-3.175.369-.138.969-.874.877-.92-2.123-3.037 2.308-3.958 2.123-6.443-.046-.736 1.246-1.565 1.938-2.347.6-.138 1.2-.276 1.8-.414.554.414 1.108.828 1.661 1.196.831.736 1.661 1.473 3.138 2.715-.369-1.427-.554-2.163-.738-2.899-.877-1.012-1.523-1.703-.277-3.313 1.154-1.473 1.708-.184 2.538-.276 2.031-.184 2.538 1.196 3 2.715.138.782.277 1.565.462 2.347.415-.782.831-1.565 1.246-2.301.692-1.15 1.385-2.301 2.169-3.405.277-.368.969-.782 1.292-.69 2.261.736 3.092.506 1.477-1.841-.046-.092.785-1.196 1.2-1.196 3.785.046 3.785.092 4.708-3.175.415-1.519.138-3.313 2.908-2.623 1.154.276 2.769-.736 3.969-1.473 1.846-1.104 3.323-2.485 1.569-4.878-1.292-1.703.138-1.565 1.2-1.611-.138-.092.046-.506.277-.92zm183.18-12.655c.092-.414.231-.828.323-1.242-.323.184-.6.414-.923.644-.323.046-.554.23-.646.552-1.154.138-2.585.644-2.077-1.519.185-.828.277-1.703.415-2.577-.554-.046-.923-.184-1.154-.092-7.938 2.899-15.877 2.761-23.815-.138-2.261-.828-4.2-.23-6.184.69-1.985.92-2.815 2.209-1.846 4.372 1.431 3.175 2.908 6.397 4.292 9.618.831 1.979 2.215 2.623 4.292 2.485 10.292-.69 19.43-3.958 26.399-11.919.323-.322.6-.598.923-.874zm28.799 44.316c-.231-.276-.508-.506-.738-.782-.462.276-.969.506-1.431.782-.508.276-1.015.552-1.523.874-1.8-4.004-1.8-4.004-5.861-2.531-.415.138-.877.368-1.338.368-1.246.046-2.261-.23-1.246-1.795 1.108-1.749.138-3.083-.831-4.418-.415-.598-1.292-1.242-1.154-1.749.6-2.807-1.108-4.464-2.723-5.706 1.569-1.196 2.954-2.209 4.477-3.313-1.523-.598-2.769-1.104-4.523-1.795 2.446-1.473 4.615-3.82 6.231-3.497 2.861.506 4.292-1.703 6.6-2.071 4.754-.736 5.908-2.531 5.4-6.074-4.431.322-8.861 1.196-13.246.874-4.061-.322-8.031-1.795-12.046-2.899-3.323-.92-6.738-1.565-9.831.23-4.015 2.255-7.846 4.832-11.63 7.409-2.538 1.703-2.815 3.912-.877 6.258 1.154 1.381 2.631 2.577 4.015 3.773 8.307 7.271 13.615 16.014 14.077 27.381.185 4.694 4.708 7.225 8.954 5.016 3.923-2.025 7.384-5.016 11.4-6.903 4.385-2.025 4.754-6.719 7.846-9.434zm-92.721-36.861c-.092.414-.046.644-.138.736-2.585 2.209-4.661 5.936-8.954 2.715-.277-.184-1.292.138-1.523.506s-.185 1.289.138 1.657c1.569 1.841 2.954 4.004 4.892 5.246 6.6 4.188 13.2 8.421 20.907 10.4 4.708 1.196 9.461 1.242 14.123-.046 3.6-1.012 3.785-1.749 2.308-5.108-2.723-6.12-5.954-12.149-7.938-18.499-1.569-5.016-4.338-8.145-8.954-10.124-.969-.414-1.892-.966-2.908-1.381-4.108-1.749-7.938-3.912-11.031-7.271-2.215-2.393-3.369-2.025-5.584 1.427 1.385.276 2.631.552 3.415.736.231 3.359.508 6.581.738 9.71-1.015-.322-2.123-.644-3.231-.966-.138 1.473-.6 2.991-.277 4.326.092.414 2.261.368 3.738.552-.785 1.657-1.523 3.221-2.261 4.786.923.184 1.754.368 2.538.598zm-89.444 46.662c-3.092.92-5.538 1.841-5.861 5.568-.138 1.887-1.523.92-2.492 0-2.354-2.209-4.292-1.887-6 .874-.323.506-.554 1.104-.923 1.565-1.292 1.519-2.031 1.335-3.369-.506-.369-.506-1.338-1.242-1.569-1.104-.831.506-1.846 1.242-2.123 2.071-.508 1.519.6 2.531 1.938 3.175 4.154 1.933 8.538 2.393 13.015 1.749 11.354-1.703 21.092-6.995 30.322-13.529.185-.138.185-.506.323-1.058-1.385-.184-2.677-.506-4.015-.46-3.692.092-7.431.46-11.123.506-3.554.046-3.554 0-4.523 3.543-.185.69-.738 1.242-1.338 2.209-.738-1.657-1.431-2.991-2.261-4.602zm85.383-29.083c-3.185-2.301-5.769-4.142-8.261-5.936-.877 1.242-1.569 2.163-2.631 3.635-.554-1.841-.923-2.991-1.292-4.142-.323.046-.6.092-.923.184.185 1.749.415 3.497.692 6.074-3.046-2.991-5.677-2.485-8.538-.828-1.615.966-3.554 1.381-5.446 1.887-.554.138-1.477-.046-1.8-.46-1.523-1.979-1.938-2.163-2.815-.46-1.2 2.347-1.846 4.924-2.815 7.593 12.784 3.359 23.076-1.289 33.83-7.547zm-57.506 15.508c.185.69.554 1.565.554 2.439 0 .69-.415 1.381-.646 2.071-.554-.322-1.246-.506-1.708-.966-1.615-1.657-3.092-.184-4.615.184-.092.046-.138 1.933.323 2.255.785.598 2.031.92 3.046.828 4.754-.276 9.554-.322 14.169-1.242 4.846-.966 9.461-2.945 13.43-6.765-4.708-1.15-9-2.255-13.43-3.359-.554 1.335-.738 3.912-3.369 1.519-.508-.46-2.077-.092-2.954.322-1.661.736-3.138 1.749-4.8 2.715zm102.136-57.017c-1.246 1.335-1.938 2.669-2.908 2.945-1.523.414-3.231.23-4.8 0-1.8-.276-3.646-.736-5.169-1.611-.6-.368-.277-2.117-.554-3.221-.138-.506-.831-.828-1.292-1.242-.415.46-1.246.966-1.2 1.427.046 2.301.138 4.602.554 6.811.138.782 1.2 1.841 1.938 1.933 4.385.598 8.815 1.058 13.2 1.335 1.8.092 3.692-.23 5.446-.69.646-.184 1.108-1.242 1.615-1.887-.923-.598-1.431-2.117-3-1.196-.738.414-1.615.736-2.308 1.012-.508-1.841-.969-3.497-1.523-5.614zm38.584 17.533c-2.492-1.381-4.292-2.761-4.431-5.614 0-.46-.554-1.196-.923-1.289-.462-.092-1.246.322-1.477.736-1.892 3.313-3.692 6.719-5.723 10.4 1.385 0 2.308.046 3.231 0 4.108-.23 8.215-.276 12.323-.828 3-.414 3.323-1.519 1.292-3.866-1.015-1.196-2.492-2.071-3.877-3.129-.138 1.242-.231 2.255-.415 3.589zm-58.522-9.02c-.369-2.715-.231-4.832-1.062-6.443-.692-1.381-2.4-2.347-3.831-3.267-.923-.598-2.169-1.058-3.231-1.058-1.292.046-2.308.782-1.477 2.393 1.985 3.727 4.523 6.719 9.6 8.375zm80.629 18.177c.323 0 .646.046.969.046.462.874.969 1.749 1.615 2.991.923-1.242 1.615-2.209 2.308-3.175.692-.92 1.154-1.979-.046-2.715-.785-.46-2.077-.92-2.769-.598-1.938.874-3.692 2.163-5.446 3.359-.462.322-.969.966-.923 1.427.231 2.255.692 4.464 1.015 6.719.323.046.646.046.969.092.785-2.715 1.569-5.43 2.308-8.145zm-54.46-15.922c3.415 1.427 6.738 1.473 10.154.23 1.8-.644 1.615-2.117 1.154-3.359-.231-.598-1.431-1.427-1.938-1.289-3.231.92-6.969 1.012-9.369 4.418zm37.061 12.839h11.769c-4.846-3.589-4.846-3.589-11.769 0zm-80.86-22.503c1.892 2.945 4.292 4.05 7.8 3.82-.969-2.209-1.8-4.096-2.677-5.982-1.754.736-3.277 1.381-5.123 2.163zm101.075 17.073c-4.246-.966-4.431 1.335-4.569 3.727 1.292-1.058 2.585-2.117 4.569-3.727zm12.83 1.473c.462-.138.923-.23 1.385-.368-.369-1.242-.785-2.531-1.154-3.773-.415.138-1.062.138-1.246.414-1.2 1.749.415 2.577 1.015 3.727zm-158.258 20.248c-.738.92-1.154 1.427-1.569 1.979.646.46 1.246 1.058 1.938 1.289.369.138.923-.368 1.385-.552-.508-.782-1.015-1.565-1.754-2.715zm36.876-32.259c-.6 1.841-.923 3.543 2.169 3.359-.877-1.335-1.523-2.347-2.169-3.359zm131.305 9.526c-.877-.69-1.431-1.15-1.938-1.565-.415.598-.831 1.196-1.246 1.749.6.276 1.2.69 1.846.782.323.092.738-.506 1.338-.966zm-167.073 31.338c.231-.276.415-.506.646-.782-.738-.368-1.477-.736-2.261-1.058-.046-.046-.277.368-.462.552.738.414 1.385.874 2.077 1.289zm148.658 23.285c0-.276 0-.552.046-.828-.231-.184-.462-.598-.6-.552-.692.184-1.385.46-2.077.69.831.23 1.754.46 2.631.69zm-159.919-115.552c-.831-.184-1.246-.414-1.523-.322-.369.138-.6.552-.923.828.277.23.646.736.831.644.462-.184.831-.552 1.615-1.15zm118.751 57.431c-.277-.276-.6-.552-.877-.874-.138-.23-.277-.506-.369-.736-.462.506-.969 1.012-1.338 1.565-.092.092.415.828.508.782.738-.138 1.431-.46 2.077-.736zm-216.826 43.671c-.323-.184-.646-.368-.969-.598-.185.322-.369.644-.554.92.369.184.738.368 1.108.552.092-.184.231-.46.415-.874zm44.122-36.999c-.231.322-.462.598-.692.92.554.184 1.154.506 1.754.552.323.046.646-.368.969-.552-.323-.46-.6-.966-1.062-1.289-.138-.184-.646.184-.969.368zm262.978-7.087c-.877-.138-1.292-.322-1.615-.23-.508.184-.969.598-1.477.874.462.23.923.69 1.338.598.508-.092.923-.598 1.754-1.242zm-134.905-104.875c-.231.598-.554.966-.508 1.335.046.414.369.782.554 1.196.231-.368.646-.736.646-1.15.046-.368-.323-.782-.692-1.381zm-15 3.175c-.277-.414-.508-.782-.738-1.104-.231.368-.646.782-.6 1.104.046.414.508.782.785 1.196.185-.414.369-.782.554-1.196zm116.397 44.73c.277-.23.6-.414.6-.552-.046-.368-.185-.69-.323-1.058-.185.138-.554.276-.554.414 0 .368.185.736.277 1.196zm-9.692 65.162c-.092-.184-.231-.414-.323-.598-.092.092-.323.23-.277.322.046.23.185.414.277.598.092-.092.185-.184.323-.322z"/><path d="m280.298 318.003c.323-.276.692-.552 1.015-.828-.323.276-.692.552-1.015.828z"/><path d="m307.159 147.092c.277.23.508.414.785.644-.277-.184-.554-.414-.785-.644z"/><path d="m9.705 201.9c.231-.138.508-.276.738-.414 0 .23 0 .414-.046.644l-.415.046c.046-.046-.277-.276-.277-.276z"/><path d="m28.212 154.179c-.185.414-.415.828-.6 1.242.185-.414.369-.828.6-1.242z"/><path d="m187.854 29.009c-.231.368-.462.69-.646 1.058.185-.368.415-.736.646-1.058z"/><path d="m297.513 174.289c-.462-.276-.877-.552-1.338-.782.415.276.877.506 1.338.782z"/></g><path d="m327.51 285.723c-57.048 80.111-168.403 98.835-248.514 41.787-80.111-57.048-98.835-168.403-41.787-248.514 57.048-80.111 168.403-98.835 248.514-41.787s98.835 168.403 41.787 248.514z" fill="none" stroke="#000" stroke-width="8.33"/></svg>